# xmcd
#
# Track frame offsets: 
#        225
#        10986
#        26018
#        42120
#        52277
#        71286
#        87219
#        97867
#        105363
#        118814
#        131129
#        139721
#        155665
#        166395
#        182710
#        194851
#        205812
#        220974
#        231669
#        243854
#        253526
#        263110
#        272473
#        284785
#        294381
#
# Disc length: 4127 seconds
#
# Revision: 1
# Processed by: cddbd v1.5.2PL0 Copyright (c) Steve Scherf et al.
# Submitted via: ExactAudioCopy v0.99pb3
#
DISCID=7d101c19
DTITLE=Various Artist - Stoleti trampingu 3
DYEAR=1999
DGENRE=Country
TTITLE0=Brontosauri - Kamarad
TTITLE1=Pavlina Jisova and Nezmari - Bedna vod whisky
TTITLE2=Spojene tramske osady Praha - Satacek
TTITLE3=Spojene tramske osady Praha - Zlatokop Tom
TTITLE4=Cervanek - Pampelisky
TTITLE5=Vaclav Marsalek and Pacifik - Zlaty udoli
TTITLE6=T.E. Band - Vobuj si boty
TTITLE7=Wabi Danek - Mavej
TTITLE8=Jitka Vrbova and Akaty - Japonecka
TTITLE9=Song Club - Potlach (Osado stara zas)
TTITLE10=KTO - Posazavskej Dan
TTITLE11=Miki Ryvola and Nezmari - Zeme tri slunci
TTITLE12=Brontosauri - Pojd devce
TTITLE13=Kapitan Kid - Slaboch Ben
TTITLE14=Spojene tramske osady Praha - Quadalcanal
TTITLE15=Camp boys - Bessie
TTITLE16=Hlucha ucha - Jizni eskadrona (Montgomerry)
TTITLE17=Akaty - Az se vratime pod Mednik
TTITLE18=Udoli desu - Horici prerie
TTITLE19=Spojene trampske osady Brno - Bitovske jezero
TTITLE20=KTO - Na osade hrali
TTITLE21=Pavel Zalman Lohonka - Ho Ho Watanay
TTITLE22=Spojene trampske osady Praha - More huci
TTITLE23=Helena Marsalkova and Pacifik - Dobrej den
TTITLE24=Spojene trampske osady Praha - Anglicka sobota
EXTD=
EXTT0=
EXTT1=
EXTT2=
EXTT3=
EXTT4=
EXTT5=
EXTT6=
EXTT7=
EXTT8=
EXTT9=
EXTT10=
EXTT11=
EXTT12=
EXTT13=
EXTT14=
EXTT15=
EXTT16=
EXTT17=
EXTT18=
EXTT19=
EXTT20=
EXTT21=
EXTT22=
EXTT23=
EXTT24=
PLAYORDER=
